<svg xmlns="http://www.w3.org/2000/svg" xmlns:xlink="http://www.w3.org/1999/xlink" width="500" zoomAndPan="magnify" viewBox="0 0 375 374.999991" height="500" preserveAspectRatio="xMidYMid meet" version="1.0"><defs><clipPath id="ff2b4b6ef4"><path d="M 181 251 L 194 251 L 194 314.355469 L 181 314.355469 Z M 181 251 " clip-rule="nonzero"/></clipPath><clipPath id="1c1d1fc68b"><path d="M 4 32.355469 L 166 32.355469 L 166 146 L 4 146 Z M 4 32.355469 " clip-rule="nonzero"/></clipPath><clipPath id="445a384740"><path d="M 209 32.355469 L 371 32.355469 L 371 146 L 209 146 Z M 209 32.355469 " clip-rule="nonzero"/></clipPath><clipPath id="4c431dc6fe"><path d="M 186 260 L 334.640625 260 L 334.640625 340 L 186 340 Z M 186 260 " clip-rule="nonzero"/></clipPath><clipPath id="f291487e4a"><path d="M 181 179.628906 L 195 179.628906 L 195 316 L 181 316 Z M 181 179.628906 " clip-rule="nonzero"/></clipPath></defs><path fill="#eab308" d="M 187.5 157.667969 C 187.5 157.667969 181.988281 146.140625 181.394531 143.972656 C 180.804688 141.804688 182.574219 139.734375 187.5 139.734375 C 192.421875 139.734375 194.191406 141.804688 193.601562 143.972656 C 193.011719 146.140625 187.5 157.667969 187.5 157.667969 Z M 187.5 157.667969 " fill-opacity="1" fill-rule="evenodd"/><path fill="#eab308" d="M 177.554688 133.78125 C 178.15625 133.433594 179.152344 134.03125 179.777344 135.117188 C 180.398438 136.199219 180.421875 137.359375 179.820312 137.707031 C 179.21875 138.054688 178.226562 137.457031 177.601562 136.371094 C 176.976562 135.289062 176.957031 134.128906 177.554688 133.78125 Z M 177.554688 133.78125 " fill-opacity="1" fill-rule="evenodd"/><path fill="#eab308" d="M 187.5 115.839844 C 187.5 115.839844 176.253906 114.402344 173.128906 126.085938 C 170 137.773438 167.21875 140.425781 164.613281 142.839844 C 178.917969 133.394531 172.425781 119.832031 187.5 119.832031 C 202.570312 119.832031 196.074219 133.394531 210.382812 142.839844 C 207.777344 140.425781 204.996094 137.773438 201.867188 126.085938 C 198.742188 114.402344 187.5 115.839844 187.5 115.839844 Z M 187.5 115.839844 " fill-opacity="1" fill-rule="evenodd"/><path fill="#eab308" d="M 166.828125 206 C 164.042969 197.164062 163.320312 185.011719 164.664062 169.542969 C 164.664062 169.542969 160.332031 184.519531 163.675781 206.988281 C 163.675781 206.988281 165.941406 215.558594 161.90625 222.652344 C 157.867188 229.75 147.632812 250.933594 129.914062 269.261719 C 128.796875 269.847656 128.144531 271.046875 128.257812 272.300781 C 128.375 273.558594 129.238281 274.617188 130.441406 274.988281 C 131.644531 275.359375 132.953125 274.964844 133.75 273.992188 C 147.320312 258.277344 157.621094 241.757812 164.664062 224.429688 C 167.863281 218.460938 168.585938 212.316406 166.828125 206 Z M 166.828125 206 " fill-opacity="1" fill-rule="evenodd"/><path fill="#eab308" d="M 139.757812 280.101562 C 138.351562 281.9375 138.542969 284.535156 140.203125 286.148438 C 141.863281 287.757812 144.464844 287.871094 146.253906 286.410156 C 154.152344 275.121094 159.695312 261.195312 162.890625 244.628906 C 154.722656 260.449219 147.011719 272.269531 139.757812 280.101562 Z M 139.757812 280.101562 " fill-opacity="1" fill-rule="evenodd"/><path fill="#eab308" d="M 153.046875 290.054688 C 151.75 291.625 151.894531 293.933594 153.371094 295.335938 C 154.847656 296.738281 157.160156 296.753906 158.65625 295.375 C 166.300781 280.257812 169.929688 263.425781 169.191406 246.5 C 164.085938 267.0625 158.707031 281.578125 153.046875 290.054688 Z M 153.046875 290.054688 " fill-opacity="1" fill-rule="evenodd"/><path fill="#eab308" d="M 166.539062 298.925781 C 166.269531 301.632812 168.121094 304.097656 170.796875 304.585938 C 173.472656 305.074219 176.074219 303.425781 176.777344 300.796875 C 179.929688 283.894531 180.394531 266.601562 178.15625 249.558594 C 175.960938 266.363281 172.070312 282.902344 166.539062 298.925781 Z M 166.539062 298.925781 " fill-opacity="1" fill-rule="evenodd"/><g clip-path="url(#ff2b4b6ef4)"><path fill="#eab308" d="M 187.5 314.292969 C 185.746094 314.332031 184.058594 313.644531 182.828125 312.394531 C 181.597656 311.144531 180.9375 309.445312 181.003906 307.691406 C 181.769531 288.769531 183.941406 269.929688 187.5 251.328125 C 191.054688 269.929688 193.226562 288.769531 193.992188 307.691406 C 194.058594 309.445312 193.398438 311.144531 192.167969 312.394531 C 190.941406 313.644531 189.25 314.332031 187.5 314.292969 Z M 187.5 314.292969 " fill-opacity="1" fill-rule="evenodd"/></g><g clip-path="url(#1c1d1fc68b)"><path fill="#eab308" d="M 165.6875 145.84375 C 165.6875 145.84375 135.953125 132.269531 125.960938 113.21875 C 115.96875 94.167969 106.039062 89.585938 95.808594 85.894531 C 85.582031 82.203125 25.453125 68.09375 4.28125 32.375 C 4.28125 32.375 0 60.949219 30.6875 74.523438 C 61.375 88.097656 86.117188 95.003906 93.964844 97.382812 C 101.816406 99.765625 110.972656 102.621094 117.039062 112.863281 C 123.105469 123.101562 137.5 138.222656 165.6875 145.84375 Z M 165.6875 145.84375 " fill-opacity="1" fill-rule="evenodd"/></g><path fill="#eab308" d="M 117.160156 122.863281 C 117.160156 122.863281 102.054688 108.335938 83.378906 104.527344 C 64.703125 100.71875 22.71875 94.527344 5.949219 70.238281 C 5.949219 70.238281 10.125 90.464844 26.285156 98.097656 C 57.316406 112.753906 79.636719 104.855469 117.160156 122.863281 Z M 117.160156 122.863281 " fill-opacity="1" fill-rule="evenodd"/><path fill="#eab308" d="M 109.070312 125.601562 C 109.070312 125.601562 95.035156 120.246094 79.214844 119.886719 C 63.398438 119.527344 35.683594 119.648438 17.484375 99.644531 C 17.484375 99.644531 22.597656 126.316406 47.695312 126.554688 C 72.792969 126.792969 90.398438 122.507812 109.070312 125.601562 Z M 109.070312 125.601562 " fill-opacity="1" fill-rule="evenodd"/><path fill="#eab308" d="M 114.542969 136.554688 C 114.542969 136.554688 98.960938 131.199219 81.476562 133.101562 C 63.992188 135.007812 47.816406 137.746094 33.421875 129.171875 C 33.421875 129.171875 43.175781 149.414062 68.511719 143.101562 C 93.847656 136.792969 100.386719 134.414062 114.542969 136.554688 Z M 114.542969 136.554688 " fill-opacity="1" fill-rule="evenodd"/><path fill="#eab308" d="M 117.636719 143.820312 C 117.636719 143.820312 101.222656 144.769531 91.46875 149.414062 C 81.714844 154.058594 71.960938 162.511719 56.855469 158.820312 C 56.855469 158.820312 72.792969 170.847656 84.804688 162.628906 C 96.820312 154.414062 104.074219 148.9375 117.636719 143.820312 Z M 117.636719 143.820312 " fill-opacity="1" fill-rule="evenodd"/><path fill="#eab308" d="M 122.511719 152.390625 C 102.070312 157.316406 98.1875 174.378906 79.574219 173.820312 C 79.574219 173.820312 92.0625 180.132812 100.269531 173.585938 C 108.476562 167.035156 110.855469 160.488281 122.511719 152.390625 Z M 122.511719 152.390625 " fill-opacity="1" fill-rule="evenodd"/><path fill="#eab308" d="M 129.769531 161.082031 C 129.769531 161.082031 119.894531 165.011719 117.515625 170.605469 C 115.136719 176.203125 110.972656 182.394531 102.765625 183.824219 C 102.765625 183.824219 112.042969 186.085938 116.328125 181.441406 C 120.609375 176.800781 120.847656 167.867188 129.769531 161.082031 Z M 129.769531 161.082031 " fill-opacity="1" fill-rule="evenodd"/><path fill="#eab308" d="M 136.429688 168.109375 C 136.429688 168.109375 129.886719 171.324219 128.578125 175.847656 C 127.269531 180.371094 125.84375 188.46875 120.132812 191.324219 C 120.132812 191.324219 127.746094 191.085938 129.527344 186.5625 C 131.3125 182.039062 131.671875 173.585938 136.429688 168.109375 Z M 136.429688 168.109375 " fill-opacity="1" fill-rule="evenodd"/><path fill="#eab308" d="M 141.664062 173.347656 C 141.664062 173.347656 137.261719 179.539062 137.617188 184.300781 C 137.976562 189.0625 138.210938 192.992188 134.167969 197.039062 C 134.167969 197.039062 139.640625 196.085938 141.066406 191.800781 C 142.496094 187.515625 139.519531 181.679688 141.664062 173.347656 Z M 141.664062 173.347656 " fill-opacity="1" fill-rule="evenodd"/><path fill="#eab308" d="M 148.382812 180.609375 C 148.382812 180.609375 146.539062 185.90625 147.609375 189.242188 C 148.679688 192.574219 149.332031 195.96875 147.488281 199.421875 C 147.488281 199.421875 152.308594 198.289062 151.652344 193.945312 C 151 189.597656 148.144531 187.632812 148.382812 180.609375 Z M 148.382812 180.609375 " fill-opacity="1" fill-rule="evenodd"/><path fill="#eab308" d="M 157.304688 182.988281 C 157.304688 182.988281 154.804688 186.085938 156.054688 191.207031 C 157.304688 196.324219 159.089844 199.597656 156.472656 203.171875 C 156.472656 203.171875 161.882812 199.597656 160.21875 194.300781 C 158.550781 189.003906 157.066406 188.226562 157.304688 182.988281 Z M 157.304688 182.988281 " fill-opacity="1" fill-rule="evenodd"/><path fill="#eab308" d="M 197.441406 133.78125 C 196.839844 133.433594 195.847656 134.03125 195.222656 135.117188 C 194.59375 136.199219 194.574219 137.359375 195.175781 137.707031 C 195.773438 138.054688 196.769531 137.457031 197.394531 136.371094 C 198.019531 135.289062 198.039062 134.128906 197.441406 133.78125 Z M 197.441406 133.78125 " fill-opacity="1" fill-rule="evenodd"/><path fill="#eab308" d="M 208.167969 206 C 210.953125 197.164062 211.675781 185.011719 210.335938 169.542969 C 210.335938 169.542969 214.664062 184.519531 211.320312 206.988281 C 211.320312 206.988281 209.054688 215.558594 213.089844 222.652344 C 217.125 229.75 227.363281 250.933594 245.082031 269.261719 C 246.199219 269.847656 246.851562 271.046875 246.734375 272.300781 C 246.621094 273.558594 245.757812 274.617188 244.554688 274.988281 C 243.351562 275.359375 242.042969 274.964844 241.242188 273.992188 C 227.679688 258.277344 217.375 241.757812 210.335938 224.429688 C 207.128906 218.460938 206.410156 212.316406 208.167969 206 Z M 208.167969 206 " fill-opacity="1" fill-rule="evenodd"/><path fill="#eab308" d="M 235.238281 280.101562 C 236.644531 281.9375 236.453125 284.535156 234.792969 286.148438 C 233.136719 287.757812 230.535156 287.871094 228.742188 286.410156 C 220.847656 275.121094 215.300781 261.195312 212.105469 244.628906 C 220.273438 260.449219 227.984375 272.269531 235.238281 280.101562 Z M 235.238281 280.101562 " fill-opacity="1" fill-rule="evenodd"/><path fill="#eab308" d="M 221.949219 290.054688 C 223.246094 291.625 223.105469 293.933594 221.625 295.335938 C 220.148438 296.738281 217.839844 296.753906 216.339844 295.375 C 208.695312 280.257812 205.066406 263.425781 205.804688 246.5 C 210.910156 267.0625 216.289062 281.578125 221.949219 290.054688 Z M 221.949219 290.054688 " fill-opacity="1" fill-rule="evenodd"/><path fill="#eab308" d="M 208.457031 298.925781 C 208.726562 301.632812 206.875 304.097656 204.199219 304.585938 C 201.523438 305.074219 198.921875 303.425781 198.21875 300.796875 C 195.066406 283.894531 194.601562 266.601562 196.839844 249.558594 C 199.035156 266.363281 202.925781 282.902344 208.457031 298.925781 Z M 208.457031 298.925781 " fill-opacity="1" fill-rule="evenodd"/><g clip-path="url(#445a384740)"><path fill="#eab308" d="M 209.308594 145.84375 C 209.308594 145.84375 239.042969 132.269531 249.035156 113.21875 C 259.027344 94.167969 268.957031 89.585938 279.1875 85.894531 C 289.417969 82.203125 349.542969 68.09375 370.714844 32.375 C 370.714844 32.375 374.996094 60.949219 344.308594 74.523438 C 313.621094 88.097656 288.882812 95.003906 281.03125 97.382812 C 273.179688 99.765625 264.019531 102.621094 257.957031 112.863281 C 251.890625 123.101562 237.496094 138.222656 209.308594 145.84375 Z M 209.308594 145.84375 " fill-opacity="1" fill-rule="evenodd"/></g><path fill="#eab308" d="M 257.835938 122.863281 C 257.835938 122.863281 272.941406 108.335938 291.617188 104.527344 C 310.289062 100.71875 352.277344 94.527344 369.050781 70.238281 C 369.050781 70.238281 364.871094 90.464844 348.710938 98.097656 C 317.679688 112.753906 295.359375 104.855469 257.835938 122.863281 Z M 257.835938 122.863281 " fill-opacity="1" fill-rule="evenodd"/><path fill="#eab308" d="M 265.925781 125.601562 C 265.925781 125.601562 279.960938 120.246094 295.777344 119.886719 C 311.601562 119.527344 339.3125 119.648438 357.511719 99.644531 C 357.511719 99.644531 352.394531 126.316406 327.300781 126.554688 C 302.203125 126.792969 284.597656 122.507812 265.925781 125.601562 Z M 265.925781 125.601562 " fill-opacity="1" fill-rule="evenodd"/><path fill="#eab308" d="M 260.453125 136.554688 C 260.453125 136.554688 276.035156 131.199219 293.519531 133.101562 C 311.003906 135.007812 327.179688 137.746094 341.574219 129.171875 C 341.574219 129.171875 331.820312 149.414062 306.484375 143.101562 C 281.148438 136.792969 274.605469 134.414062 260.453125 136.554688 Z M 260.453125 136.554688 " fill-opacity="1" fill-rule="evenodd"/><path fill="#eab308" d="M 257.359375 143.820312 C 257.359375 143.820312 273.777344 144.769531 283.527344 149.414062 C 293.28125 154.058594 303.035156 162.511719 318.140625 158.820312 C 318.140625 158.820312 302.203125 170.847656 290.1875 162.628906 C 278.175781 154.414062 270.917969 148.9375 257.359375 143.820312 Z M 257.359375 143.820312 " fill-opacity="1" fill-rule="evenodd"/><path fill="#eab308" d="M 252.484375 152.390625 C 272.925781 157.316406 276.8125 174.378906 295.421875 173.820312 C 295.421875 173.820312 282.933594 180.132812 274.726562 173.585938 C 266.519531 167.035156 264.140625 160.488281 252.484375 152.390625 Z M 252.484375 152.390625 " fill-opacity="1" fill-rule="evenodd"/><path fill="#eab308" d="M 245.230469 161.082031 C 245.230469 161.082031 255.101562 165.011719 257.480469 170.605469 C 259.859375 176.203125 264.019531 182.394531 272.230469 183.824219 C 272.230469 183.824219 262.949219 186.085938 258.667969 181.441406 C 254.386719 176.800781 254.148438 167.867188 245.230469 161.082031 Z M 245.230469 161.082031 " fill-opacity="1" fill-rule="evenodd"/><path fill="#eab308" d="M 238.566406 168.109375 C 238.566406 168.109375 245.109375 171.324219 246.417969 175.847656 C 247.726562 180.371094 249.152344 188.46875 254.863281 191.324219 C 254.863281 191.324219 247.25 191.085938 245.464844 186.5625 C 243.683594 182.039062 243.324219 173.585938 238.566406 168.109375 Z M 238.566406 168.109375 " fill-opacity="1" fill-rule="evenodd"/><path fill="#eab308" d="M 233.335938 173.347656 C 233.335938 173.347656 237.734375 179.539062 237.378906 184.300781 C 237.023438 189.0625 236.785156 192.992188 240.828125 197.039062 C 240.828125 197.039062 235.355469 196.085938 233.929688 191.800781 C 232.5 187.515625 235.476562 181.679688 233.335938 173.347656 Z M 233.335938 173.347656 " fill-opacity="1" fill-rule="evenodd"/><path fill="#eab308" d="M 226.613281 180.609375 C 226.613281 180.609375 228.457031 185.90625 227.386719 189.242188 C 226.316406 192.574219 225.664062 195.96875 227.507812 199.421875 C 227.507812 199.421875 222.6875 198.289062 223.34375 193.945312 C 223.996094 189.597656 226.851562 187.632812 226.613281 180.609375 Z M 226.613281 180.609375 " fill-opacity="1" fill-rule="evenodd"/><path fill="#eab308" d="M 217.695312 182.988281 C 217.695312 182.988281 220.191406 186.085938 218.941406 191.207031 C 217.695312 196.324219 215.910156 199.597656 218.523438 203.171875 C 218.523438 203.171875 213.113281 199.597656 214.777344 194.300781 C 216.445312 189.003906 217.929688 188.226562 217.695312 182.988281 Z M 217.695312 182.988281 " fill-opacity="1" fill-rule="evenodd"/><g clip-path="url(#4c431dc6fe)"><path fill="#a15f5f" d="M 333.949219 318.800781 C 334.320312 319.902344 333.871094 321.15625 332.835938 321.683594 C 327.507812 324.40625 314.925781 310.941406 277.425781 310.824219 C 260.738281 310.773438 243.703125 312.285156 227.929688 317.472656 C 212.976562 322.390625 192.941406 335.386719 195.640625 333.902344 C 235.539062 311.953125 272.332031 315.074219 292.695312 328.691406 C 294.75 330.066406 294.722656 330.152344 299.835938 333.640625 C 299.046875 331.785156 296.054688 326.175781 293.460938 322.5 C 293.015625 321.871094 293.890625 320.914062 294.511719 321.605469 C 297.03125 324.40625 304.289062 334.011719 304.175781 338.210938 C 304.152344 339.1875 303.085938 339.78125 302.226562 339.316406 C 299.308594 337.734375 291.21875 333.410156 287.75 332.203125 C 267.101562 325.023438 226.589844 324.699219 197.878906 336.503906 C 195.664062 337.417969 191.464844 339.171875 188.585938 339.808594 C 177.035156 342.378906 215.480469 293.421875 258.074219 286.128906 C 266.40625 284.679688 268.292969 284.296875 280.710938 285.671875 C 273.816406 278.628906 272.28125 275.527344 263.253906 270.253906 C 249.917969 262.457031 247.207031 263.144531 248.175781 261.699219 C 250.324219 258.488281 261.929688 264.203125 266.035156 266.617188 C 281.816406 275.878906 298.238281 292.609375 284.03125 289.359375 C 277.949219 287.964844 269.90625 286.480469 260.492188 288.203125 C 241.480469 291.683594 213.582031 307.183594 194.214844 332.046875 C 219.570312 315.84375 234.265625 311.722656 252.53125 309.664062 C 318.078125 302.277344 328.007812 323.507812 322.933594 311.851562 C 315.542969 294.871094 303.480469 276.605469 286.378906 269.394531 C 282.792969 267.832031 289.738281 262.914062 306.976562 277.648438 C 321.097656 289.453125 331.292969 310.984375 333.949219 318.800781 " fill-opacity="1" fill-rule="nonzero"/></g><path fill="#a15f5f" d="M 41.332031 318.800781 C 40.960938 319.902344 41.40625 321.15625 42.445312 321.683594 C 47.773438 324.40625 60.355469 310.941406 97.855469 310.824219 C 114.539062 310.773438 131.578125 312.285156 147.351562 317.472656 C 162.304688 322.390625 182.335938 335.386719 179.636719 333.902344 C 139.742188 311.953125 102.949219 315.074219 82.585938 328.691406 C 80.527344 330.066406 80.558594 330.152344 75.441406 333.640625 C 76.234375 331.785156 79.226562 326.175781 81.820312 322.5 C 82.265625 321.871094 81.386719 320.914062 80.765625 321.605469 C 78.25 324.40625 70.988281 334.011719 71.101562 338.210938 C 71.128906 339.1875 72.195312 339.78125 73.050781 339.316406 C 75.96875 337.734375 84.058594 333.410156 87.53125 332.203125 C 108.175781 325.023438 148.6875 324.699219 177.398438 336.503906 C 179.617188 337.417969 183.816406 339.171875 186.691406 339.808594 C 198.246094 342.378906 159.800781 293.421875 117.207031 286.128906 C 108.875 284.679688 106.988281 284.296875 94.566406 285.671875 C 101.464844 278.628906 102.996094 275.527344 112.027344 270.253906 C 125.359375 262.457031 128.070312 263.144531 127.105469 261.699219 C 124.957031 258.488281 113.351562 264.203125 109.242188 266.617188 C 93.460938 275.878906 77.039062 292.609375 91.25 289.359375 C 97.332031 287.964844 105.375 286.480469 114.789062 288.203125 C 133.800781 291.683594 161.695312 307.183594 181.0625 332.046875 C 155.707031 315.84375 141.015625 311.722656 122.75 309.664062 C 57.199219 302.277344 47.269531 323.507812 52.347656 311.851562 C 59.734375 294.871094 71.796875 276.605469 88.902344 269.394531 C 92.488281 267.832031 85.542969 262.914062 68.300781 277.648438 C 54.179688 289.453125 43.984375 310.984375 41.332031 318.800781 " fill-opacity="1" fill-rule="nonzero"/><g clip-path="url(#f291487e4a)"><path fill="#a15f5f" d="M 191.449219 315.441406 L 183.828125 315.441406 C 182.371094 315.441406 181.1875 313.808594 181.1875 311.796875 L 181.1875 183.273438 C 181.1875 181.265625 182.371094 179.632812 183.828125 179.632812 L 191.449219 179.632812 C 192.910156 179.632812 194.089844 181.265625 194.089844 183.273438 L 194.089844 311.796875 C 194.089844 313.808594 192.910156 315.441406 191.449219 315.441406 " fill-opacity="1" fill-rule="nonzero"/></g><path fill="#a15f5f" d="M 217.386719 222.824219 L 157.894531 222.824219 C 155.878906 222.824219 154.242188 221.691406 154.242188 220.296875 L 154.242188 213.023438 C 154.242188 211.628906 155.878906 210.5 157.894531 210.5 L 217.386719 210.5 C 219.402344 210.5 221.039062 211.628906 221.039062 213.023438 L 221.039062 220.296875 C 221.039062 221.691406 219.402344 222.824219 217.386719 222.824219 " fill-opacity="1" fill-rule="nonzero"/></svg>